<mxfile host="app.diagrams.net" agent="Mozilla/5.0 (X11; Linux x86_64; rv:137.0) Gecko/20100101 Firefox/137.0" version="26.2.1">
  <diagram name="Page-1" id="Os9cG9EQ_jgrfwfWIbtC">
    <mxGraphModel dx="1712" dy="1777" grid="1" gridSize="10" guides="1" tooltips="1" connect="1" arrows="1" fold="1" page="1" pageScale="1" pageWidth="850" pageHeight="1100" math="0" shadow="0">
      <root>
        <mxCell id="0" />
        <mxCell id="1" parent="0" />
        <mxCell id="jvJYzUm6K9mgyRyK3-_l-2" value="" style="ellipse;html=1;shape=startState;fillColor=#000000;strokeColor=#ff0000;" parent="1" vertex="1">
          <mxGeometry x="773.75" y="-20" width="30" height="30" as="geometry" />
        </mxCell>
        <mxCell id="jvJYzUm6K9mgyRyK3-_l-3" value="" style="edgeStyle=orthogonalEdgeStyle;html=1;verticalAlign=bottom;endArrow=open;endSize=8;strokeColor=#ff0000;rounded=0;" parent="1" source="jvJYzUm6K9mgyRyK3-_l-2" target="jvJYzUm6K9mgyRyK3-_l-34" edge="1">
          <mxGeometry relative="1" as="geometry">
            <mxPoint x="788.75" y="40" as="targetPoint" />
          </mxGeometry>
        </mxCell>
        <mxCell id="jvJYzUm6K9mgyRyK3-_l-39" value="" style="edgeStyle=orthogonalEdgeStyle;rounded=0;orthogonalLoop=1;jettySize=auto;html=1;" parent="1" source="jvJYzUm6K9mgyRyK3-_l-34" target="jvJYzUm6K9mgyRyK3-_l-38" edge="1">
          <mxGeometry relative="1" as="geometry" />
        </mxCell>
        <mxCell id="jvJYzUm6K9mgyRyK3-_l-34" value="&lt;div&gt;User is on the main page&lt;/div&gt;" style="rounded=1;whiteSpace=wrap;html=1;arcSize=40;fontColor=#000000;fillColor=#ffffc0;strokeColor=#ff0000;" parent="1" vertex="1">
          <mxGeometry x="710" y="40" width="157.5" height="60" as="geometry" />
        </mxCell>
        <mxCell id="jvJYzUm6K9mgyRyK3-_l-42" value="" style="edgeStyle=orthogonalEdgeStyle;rounded=0;orthogonalLoop=1;jettySize=auto;html=1;" parent="1" source="jvJYzUm6K9mgyRyK3-_l-38" target="jvJYzUm6K9mgyRyK3-_l-41" edge="1">
          <mxGeometry relative="1" as="geometry" />
        </mxCell>
        <mxCell id="jvJYzUm6K9mgyRyK3-_l-38" value="&lt;div&gt;User clicks the &quot;+&quot; button on the main page&lt;/div&gt;" style="rounded=1;whiteSpace=wrap;html=1;arcSize=40;fontColor=#000000;fillColor=#ffffc0;strokeColor=#ff0000;" parent="1" vertex="1">
          <mxGeometry x="710" y="140" width="157.5" height="60" as="geometry" />
        </mxCell>
        <mxCell id="jvJYzUm6K9mgyRyK3-_l-43" value="" style="edgeStyle=orthogonalEdgeStyle;rounded=0;orthogonalLoop=1;jettySize=auto;html=1;" parent="1" source="jvJYzUm6K9mgyRyK3-_l-38" target="jvJYzUm6K9mgyRyK3-_l-41" edge="1">
          <mxGeometry relative="1" as="geometry">
            <mxPoint x="789.25" y="200" as="sourcePoint" />
            <mxPoint x="790.25" y="280" as="targetPoint" />
          </mxGeometry>
        </mxCell>
        <mxCell id="jvJYzUm6K9mgyRyK3-_l-48" value="" style="edgeStyle=orthogonalEdgeStyle;rounded=0;orthogonalLoop=1;jettySize=auto;html=1;" parent="1" source="jvJYzUm6K9mgyRyK3-_l-41" target="jvJYzUm6K9mgyRyK3-_l-45" edge="1">
          <mxGeometry relative="1" as="geometry" />
        </mxCell>
        <mxCell id="jvJYzUm6K9mgyRyK3-_l-41" value="&lt;div&gt;User is on the create new trip plan page&lt;/div&gt;" style="rounded=1;whiteSpace=wrap;html=1;arcSize=40;fontColor=#000000;fillColor=#ffffc0;strokeColor=#ff0000;" parent="1" vertex="1">
          <mxGeometry x="710" y="250" width="157.5" height="60" as="geometry" />
        </mxCell>
        <mxCell id="jvJYzUm6K9mgyRyK3-_l-50" value="" style="edgeStyle=orthogonalEdgeStyle;rounded=0;orthogonalLoop=1;jettySize=auto;html=1;entryX=0.5;entryY=0;entryDx=0;entryDy=0;" parent="1" source="jvJYzUm6K9mgyRyK3-_l-45" target="jvJYzUm6K9mgyRyK3-_l-49" edge="1">
          <mxGeometry relative="1" as="geometry" />
        </mxCell>
        <mxCell id="jvJYzUm6K9mgyRyK3-_l-51" value="&lt;div&gt;Yes&lt;/div&gt;" style="edgeLabel;html=1;align=center;verticalAlign=middle;resizable=0;points=[];" parent="jvJYzUm6K9mgyRyK3-_l-50" vertex="1" connectable="0">
          <mxGeometry x="-0.7503" y="1" relative="1" as="geometry">
            <mxPoint x="-14" y="-16" as="offset" />
          </mxGeometry>
        </mxCell>
        <mxCell id="jvJYzUm6K9mgyRyK3-_l-45" value="&lt;div&gt;Did the user add trip destination,&amp;nbsp;&lt;/div&gt;&lt;div&gt;start and end date before clicking &quot;Start planning&quot;?&lt;/div&gt;" style="rhombus;whiteSpace=wrap;html=1;fontColor=#000000;fillColor=#ffffc0;strokeColor=#ff0000;" parent="1" vertex="1">
          <mxGeometry x="667.5" y="350" width="242.5" height="210" as="geometry" />
        </mxCell>
        <mxCell id="jvJYzUm6K9mgyRyK3-_l-49" value="&lt;div&gt;Had the user clicked&lt;/div&gt;&lt;div&gt;&amp;nbsp;the &quot;Fill the plan with activities&quot; button?&lt;/div&gt;" style="rhombus;whiteSpace=wrap;html=1;fontColor=#000000;fillColor=#ffffc0;strokeColor=#ff0000;" parent="1" vertex="1">
          <mxGeometry x="445" y="530" width="180" height="170" as="geometry" />
        </mxCell>
        <mxCell id="jvJYzUm6K9mgyRyK3-_l-54" value="&lt;div&gt;User is asked to add what they omitted&lt;/div&gt;" style="rounded=1;whiteSpace=wrap;html=1;arcSize=40;fontColor=#000000;fillColor=#ffffc0;strokeColor=#ff0000;" parent="1" vertex="1">
          <mxGeometry x="950" y="535" width="157.5" height="60" as="geometry" />
        </mxCell>
        <mxCell id="jvJYzUm6K9mgyRyK3-_l-55" value="" style="edgeStyle=orthogonalEdgeStyle;rounded=0;orthogonalLoop=1;jettySize=auto;html=1;" parent="1" source="jvJYzUm6K9mgyRyK3-_l-45" target="jvJYzUm6K9mgyRyK3-_l-54" edge="1">
          <mxGeometry relative="1" as="geometry">
            <mxPoint x="719" y="465" as="sourcePoint" />
            <mxPoint x="550" y="510" as="targetPoint" />
          </mxGeometry>
        </mxCell>
        <mxCell id="jvJYzUm6K9mgyRyK3-_l-56" value="No" style="edgeLabel;html=1;align=center;verticalAlign=middle;resizable=0;points=[];" parent="jvJYzUm6K9mgyRyK3-_l-55" vertex="1" connectable="0">
          <mxGeometry x="-0.7503" y="1" relative="1" as="geometry">
            <mxPoint x="-14" y="-16" as="offset" />
          </mxGeometry>
        </mxCell>
        <mxCell id="jvJYzUm6K9mgyRyK3-_l-65" value="" style="edgeStyle=orthogonalEdgeStyle;rounded=0;orthogonalLoop=1;jettySize=auto;html=1;" parent="1" source="jvJYzUm6K9mgyRyK3-_l-58" target="jvJYzUm6K9mgyRyK3-_l-64" edge="1">
          <mxGeometry relative="1" as="geometry">
            <Array as="points">
              <mxPoint x="500" y="730" />
            </Array>
          </mxGeometry>
        </mxCell>
        <mxCell id="jvJYzUm6K9mgyRyK3-_l-58" value="Τhe system creates a new trip plan with activities" style="rounded=1;whiteSpace=wrap;html=1;arcSize=40;fontColor=#000000;fillColor=#ffffc0;strokeColor=#ff0000;" parent="1" vertex="1">
          <mxGeometry x="207.5" y="700" width="157.5" height="60" as="geometry" />
        </mxCell>
        <mxCell id="jvJYzUm6K9mgyRyK3-_l-59" value="" style="edgeStyle=orthogonalEdgeStyle;rounded=0;orthogonalLoop=1;jettySize=auto;html=1;" parent="1" source="jvJYzUm6K9mgyRyK3-_l-49" target="jvJYzUm6K9mgyRyK3-_l-58" edge="1">
          <mxGeometry relative="1" as="geometry">
            <mxPoint x="380.0000000000002" y="580" as="sourcePoint" />
            <mxPoint x="300" y="695.0769230769233" as="targetPoint" />
            <Array as="points">
              <mxPoint x="286" y="615" />
            </Array>
          </mxGeometry>
        </mxCell>
        <mxCell id="jvJYzUm6K9mgyRyK3-_l-60" value="&lt;div&gt;Yes&lt;/div&gt;" style="edgeLabel;html=1;align=center;verticalAlign=middle;resizable=0;points=[];" parent="jvJYzUm6K9mgyRyK3-_l-59" vertex="1" connectable="0">
          <mxGeometry x="-0.7503" y="1" relative="1" as="geometry">
            <mxPoint x="-14" y="-16" as="offset" />
          </mxGeometry>
        </mxCell>
        <mxCell id="jvJYzUm6K9mgyRyK3-_l-61" value="Τhe system creates a new trip plan with activities" style="rounded=1;whiteSpace=wrap;html=1;arcSize=40;fontColor=#000000;fillColor=#ffffc0;strokeColor=#ff0000;" parent="1" vertex="1">
          <mxGeometry x="670" y="700" width="157.5" height="60" as="geometry" />
        </mxCell>
        <mxCell id="jvJYzUm6K9mgyRyK3-_l-62" value="" style="edgeStyle=orthogonalEdgeStyle;rounded=0;orthogonalLoop=1;jettySize=auto;html=1;" parent="1" source="jvJYzUm6K9mgyRyK3-_l-49" target="jvJYzUm6K9mgyRyK3-_l-61" edge="1">
          <mxGeometry relative="1" as="geometry">
            <mxPoint x="650" y="575" as="sourcePoint" />
            <mxPoint x="810" y="655" as="targetPoint" />
            <Array as="points">
              <mxPoint x="749" y="615" />
            </Array>
          </mxGeometry>
        </mxCell>
        <mxCell id="jvJYzUm6K9mgyRyK3-_l-63" value="No" style="edgeLabel;html=1;align=center;verticalAlign=middle;resizable=0;points=[];" parent="jvJYzUm6K9mgyRyK3-_l-62" vertex="1" connectable="0">
          <mxGeometry x="-0.7503" y="1" relative="1" as="geometry">
            <mxPoint x="-14" y="-16" as="offset" />
          </mxGeometry>
        </mxCell>
        <mxCell id="jvJYzUm6K9mgyRyK3-_l-69" value="" style="edgeStyle=orthogonalEdgeStyle;rounded=0;orthogonalLoop=1;jettySize=auto;html=1;" parent="1" source="jvJYzUm6K9mgyRyK3-_l-64" target="jvJYzUm6K9mgyRyK3-_l-68" edge="1">
          <mxGeometry relative="1" as="geometry" />
        </mxCell>
        <mxCell id="jvJYzUm6K9mgyRyK3-_l-64" value="The user is on the daily trip plan page of their new trip plan" style="rounded=1;whiteSpace=wrap;html=1;arcSize=40;fontColor=#000000;fillColor=#ffffc0;strokeColor=#ff0000;" parent="1" vertex="1">
          <mxGeometry x="467.5" y="850" width="157.5" height="60" as="geometry" />
        </mxCell>
        <mxCell id="jvJYzUm6K9mgyRyK3-_l-66" value="" style="edgeStyle=orthogonalEdgeStyle;rounded=0;orthogonalLoop=1;jettySize=auto;html=1;" parent="1" source="jvJYzUm6K9mgyRyK3-_l-61" target="jvJYzUm6K9mgyRyK3-_l-64" edge="1">
          <mxGeometry relative="1" as="geometry">
            <mxPoint x="375" y="740" as="sourcePoint" />
            <mxPoint x="510" y="860" as="targetPoint" />
            <Array as="points">
              <mxPoint x="574" y="730" />
            </Array>
          </mxGeometry>
        </mxCell>
        <mxCell id="jvJYzUm6K9mgyRyK3-_l-82" value="" style="edgeStyle=orthogonalEdgeStyle;rounded=0;orthogonalLoop=1;jettySize=auto;html=1;" parent="1" source="jvJYzUm6K9mgyRyK3-_l-68" target="jvJYzUm6K9mgyRyK3-_l-71" edge="1">
          <mxGeometry relative="1" as="geometry">
            <mxPoint x="760" y="1080" as="targetPoint" />
          </mxGeometry>
        </mxCell>
        <mxCell id="jvJYzUm6K9mgyRyK3-_l-84" value="&quot;Cancel&quot;" style="edgeLabel;html=1;align=center;verticalAlign=middle;resizable=0;points=[];" parent="jvJYzUm6K9mgyRyK3-_l-82" vertex="1" connectable="0">
          <mxGeometry x="-0.3178" y="-1" relative="1" as="geometry">
            <mxPoint x="7" y="-10" as="offset" />
          </mxGeometry>
        </mxCell>
        <mxCell id="jvJYzUm6K9mgyRyK3-_l-68" value="Which button did the user press?" style="rhombus;whiteSpace=wrap;html=1;fontColor=#000000;fillColor=#ffffc0;strokeColor=#ff0000;" parent="1" vertex="1">
          <mxGeometry x="448.75" y="1000" width="195" height="158.44" as="geometry" />
        </mxCell>
        <mxCell id="jvJYzUm6K9mgyRyK3-_l-74" value="" style="edgeStyle=orthogonalEdgeStyle;rounded=0;orthogonalLoop=1;jettySize=auto;html=1;" parent="1" source="jvJYzUm6K9mgyRyK3-_l-70" target="jvJYzUm6K9mgyRyK3-_l-73" edge="1">
          <mxGeometry relative="1" as="geometry" />
        </mxCell>
        <mxCell id="jvJYzUm6K9mgyRyK3-_l-70" value="The system adds this trip plan to the user&#39;s history list" style="rounded=1;whiteSpace=wrap;html=1;arcSize=40;fontColor=#000000;fillColor=#ffffc0;strokeColor=#ff0000;" parent="1" vertex="1">
          <mxGeometry x="170" y="1250" width="157.5" height="60" as="geometry" />
        </mxCell>
        <mxCell id="jvJYzUm6K9mgyRyK3-_l-73" value="The user is on the main page" style="rounded=1;whiteSpace=wrap;html=1;arcSize=40;fontColor=#000000;fillColor=#ffffc0;strokeColor=#ff0000;" parent="1" vertex="1">
          <mxGeometry x="170" y="1395" width="157.5" height="60" as="geometry" />
        </mxCell>
        <mxCell id="jvJYzUm6K9mgyRyK3-_l-77" value="" style="edgeStyle=orthogonalEdgeStyle;rounded=0;orthogonalLoop=1;jettySize=auto;html=1;entryX=1;entryY=0.5;entryDx=0;entryDy=0;exitX=0.5;exitY=1;exitDx=0;exitDy=0;" parent="1" source="jvJYzUm6K9mgyRyK3-_l-71" target="jvJYzUm6K9mgyRyK3-_l-2" edge="1">
          <mxGeometry relative="1" as="geometry">
            <mxPoint x="1318.75" y="1290" as="sourcePoint" />
            <mxPoint x="1160" y="-20" as="targetPoint" />
            <Array as="points">
              <mxPoint x="819" y="1340" />
              <mxPoint x="1190" y="1340" />
              <mxPoint x="1190" y="-5" />
            </Array>
          </mxGeometry>
        </mxCell>
        <mxCell id="jvJYzUm6K9mgyRyK3-_l-71" value="The system deletes this trip plan" style="rounded=1;whiteSpace=wrap;html=1;arcSize=40;fontColor=#000000;fillColor=#ffffc0;strokeColor=#ff0000;" parent="1" vertex="1">
          <mxGeometry x="740" y="1250" width="157.5" height="60" as="geometry" />
        </mxCell>
        <mxCell id="jvJYzUm6K9mgyRyK3-_l-80" value="" style="edgeStyle=orthogonalEdgeStyle;rounded=0;orthogonalLoop=1;jettySize=auto;html=1;" parent="1" source="jvJYzUm6K9mgyRyK3-_l-68" target="jvJYzUm6K9mgyRyK3-_l-94" edge="1">
          <mxGeometry relative="1" as="geometry">
            <mxPoint x="545" y="920" as="sourcePoint" />
            <mxPoint x="535" y="1230" as="targetPoint" />
          </mxGeometry>
        </mxCell>
        <mxCell id="jvJYzUm6K9mgyRyK3-_l-85" value="&quot;+&quot;" style="edgeLabel;html=1;align=center;verticalAlign=middle;resizable=0;points=[];" parent="jvJYzUm6K9mgyRyK3-_l-80" vertex="1" connectable="0">
          <mxGeometry x="0.1142" y="3" relative="1" as="geometry">
            <mxPoint x="12" as="offset" />
          </mxGeometry>
        </mxCell>
        <mxCell id="jvJYzUm6K9mgyRyK3-_l-83" value="" style="edgeStyle=orthogonalEdgeStyle;rounded=0;orthogonalLoop=1;jettySize=auto;html=1;" parent="1" source="jvJYzUm6K9mgyRyK3-_l-68" target="jvJYzUm6K9mgyRyK3-_l-70" edge="1">
          <mxGeometry relative="1" as="geometry">
            <mxPoint x="642" y="1089" as="sourcePoint" />
            <mxPoint x="769" y="1260" as="targetPoint" />
          </mxGeometry>
        </mxCell>
        <mxCell id="jvJYzUm6K9mgyRyK3-_l-87" value="&quot;Save&quot;" style="edgeLabel;html=1;align=center;verticalAlign=middle;resizable=0;points=[];" parent="jvJYzUm6K9mgyRyK3-_l-83" vertex="1" connectable="0">
          <mxGeometry x="-0.2774" y="3" relative="1" as="geometry">
            <mxPoint x="-21" y="-12" as="offset" />
          </mxGeometry>
        </mxCell>
        <mxCell id="jvJYzUm6K9mgyRyK3-_l-94" value="A pop-up of buttons appears" style="rounded=1;whiteSpace=wrap;html=1;arcSize=40;fontColor=#000000;fillColor=#ffffc0;strokeColor=#ff0000;" parent="1" vertex="1">
          <mxGeometry x="467.5" y="1250" width="157.5" height="60" as="geometry" />
        </mxCell>
        <mxCell id="jvJYzUm6K9mgyRyK3-_l-96" value="The user clicked the &quot;Transportation&quot; button" style="rhombus;whiteSpace=wrap;html=1;fontColor=#000000;fillColor=#ffffc0;strokeColor=#ff0000;" parent="1" vertex="1">
          <mxGeometry x="470" y="1380" width="152.5" height="150" as="geometry" />
        </mxCell>
        <mxCell id="jvJYzUm6K9mgyRyK3-_l-99" value="" style="edgeStyle=orthogonalEdgeStyle;rounded=0;orthogonalLoop=1;jettySize=auto;html=1;" parent="1" source="jvJYzUm6K9mgyRyK3-_l-148" target="jvJYzUm6K9mgyRyK3-_l-100" edge="1">
          <mxGeometry relative="1" as="geometry">
            <mxPoint x="1180" y="1455" as="targetPoint" />
          </mxGeometry>
        </mxCell>
        <mxCell id="jvJYzUm6K9mgyRyK3-_l-97" value="The user is on the transportation page" style="rounded=1;whiteSpace=wrap;html=1;arcSize=40;fontColor=#000000;fillColor=#ffffc0;strokeColor=#ff0000;" parent="1" vertex="1">
          <mxGeometry x="685" y="1425" width="157.5" height="60" as="geometry" />
        </mxCell>
        <mxCell id="jvJYzUm6K9mgyRyK3-_l-100" value="" style="rhombus;whiteSpace=wrap;html=1;fontColor=#000000;fillColor=#ffffc0;strokeColor=#ff0000;" parent="1" vertex="1">
          <mxGeometry x="1680" y="1420" width="80" height="70" as="geometry" />
        </mxCell>
        <mxCell id="jvJYzUm6K9mgyRyK3-_l-102" value="" style="edgeStyle=orthogonalEdgeStyle;rounded=0;orthogonalLoop=1;jettySize=auto;html=1;" parent="1" source="jvJYzUm6K9mgyRyK3-_l-96" target="jvJYzUm6K9mgyRyK3-_l-97" edge="1">
          <mxGeometry relative="1" as="geometry">
            <mxPoint x="853" y="1465" as="sourcePoint" />
            <mxPoint x="955" y="1465" as="targetPoint" />
          </mxGeometry>
        </mxCell>
        <mxCell id="jvJYzUm6K9mgyRyK3-_l-105" value="True" style="edgeLabel;html=1;align=center;verticalAlign=middle;resizable=0;points=[];" parent="jvJYzUm6K9mgyRyK3-_l-102" vertex="1" connectable="0">
          <mxGeometry x="-0.2227" relative="1" as="geometry">
            <mxPoint x="-22" y="-10" as="offset" />
          </mxGeometry>
        </mxCell>
        <mxCell id="jvJYzUm6K9mgyRyK3-_l-107" value="" style="edgeStyle=orthogonalEdgeStyle;rounded=0;orthogonalLoop=1;jettySize=auto;html=1;" parent="1" source="jvJYzUm6K9mgyRyK3-_l-96" target="jvJYzUm6K9mgyRyK3-_l-152" edge="1">
          <mxGeometry relative="1" as="geometry">
            <mxPoint x="546.2857142857147" y="1550.0048711943791" as="sourcePoint" />
            <mxPoint x="550" y="1565.04" as="targetPoint" />
          </mxGeometry>
        </mxCell>
        <mxCell id="jvJYzUm6K9mgyRyK3-_l-108" value="False" style="edgeLabel;html=1;align=center;verticalAlign=middle;resizable=0;points=[];" parent="jvJYzUm6K9mgyRyK3-_l-107" vertex="1" connectable="0">
          <mxGeometry x="-0.2227" relative="1" as="geometry">
            <mxPoint x="-22" y="-10" as="offset" />
          </mxGeometry>
        </mxCell>
        <mxCell id="jvJYzUm6K9mgyRyK3-_l-110" value="" style="edgeStyle=orthogonalEdgeStyle;rounded=0;orthogonalLoop=1;jettySize=auto;html=1;" parent="1" source="jvJYzUm6K9mgyRyK3-_l-100" target="jvJYzUm6K9mgyRyK3-_l-156" edge="1">
          <mxGeometry relative="1" as="geometry">
            <mxPoint x="1295" y="1500" as="sourcePoint" />
            <mxPoint x="1720" y="1545" as="targetPoint" />
          </mxGeometry>
        </mxCell>
        <mxCell id="jvJYzUm6K9mgyRyK3-_l-146" value="The user chooses the transportation they want" style="rounded=1;whiteSpace=wrap;html=1;arcSize=40;fontColor=#000000;fillColor=#ffffc0;strokeColor=#ff0000;" parent="1" vertex="1">
          <mxGeometry x="1160" y="1425" width="157.5" height="60" as="geometry" />
        </mxCell>
        <mxCell id="jvJYzUm6K9mgyRyK3-_l-148" value="The user clicks the &quot;Save&quot; button" style="rounded=1;whiteSpace=wrap;html=1;arcSize=40;fontColor=#000000;fillColor=#ffffc0;strokeColor=#ff0000;" parent="1" vertex="1">
          <mxGeometry x="1425" y="1425" width="157.5" height="60" as="geometry" />
        </mxCell>
        <mxCell id="jvJYzUm6K9mgyRyK3-_l-150" value="The system shows transportation options" style="rounded=1;whiteSpace=wrap;html=1;arcSize=40;fontColor=#000000;fillColor=#ffffc0;strokeColor=#ff0000;" parent="1" vertex="1">
          <mxGeometry x="922.5" y="1425" width="157.5" height="60" as="geometry" />
        </mxCell>
        <mxCell id="jvJYzUm6K9mgyRyK3-_l-152" value="The user&amp;nbsp;clicked the &quot;Accomodation&quot; button" style="rhombus;whiteSpace=wrap;html=1;fontColor=#000000;fillColor=#ffffc0;strokeColor=#ff0000;" parent="1" vertex="1">
          <mxGeometry x="471.25" y="1560" width="150" height="145" as="geometry" />
        </mxCell>
        <mxCell id="jvJYzUm6K9mgyRyK3-_l-153" value="" style="edgeStyle=orthogonalEdgeStyle;rounded=0;orthogonalLoop=1;jettySize=auto;html=1;" parent="1" source="jvJYzUm6K9mgyRyK3-_l-167" target="jvJYzUm6K9mgyRyK3-_l-156" edge="1">
          <mxGeometry relative="1" as="geometry">
            <mxPoint x="1181.25" y="1632.5" as="targetPoint" />
          </mxGeometry>
        </mxCell>
        <mxCell id="jvJYzUm6K9mgyRyK3-_l-155" value="The user&amp;nbsp;is on the accomodation page" style="rounded=1;whiteSpace=wrap;html=1;arcSize=40;fontColor=#000000;fillColor=#ffffc0;strokeColor=#ff0000;" parent="1" vertex="1">
          <mxGeometry x="686.25" y="1602.5" width="157.5" height="60" as="geometry" />
        </mxCell>
        <mxCell id="jvJYzUm6K9mgyRyK3-_l-156" value="" style="rhombus;whiteSpace=wrap;html=1;fontColor=#000000;fillColor=#ffffc0;strokeColor=#ff0000;" parent="1" vertex="1">
          <mxGeometry x="1680" y="1597.5" width="80" height="70" as="geometry" />
        </mxCell>
        <mxCell id="jvJYzUm6K9mgyRyK3-_l-157" value="" style="edgeStyle=orthogonalEdgeStyle;rounded=0;orthogonalLoop=1;jettySize=auto;html=1;" parent="1" source="jvJYzUm6K9mgyRyK3-_l-152" target="jvJYzUm6K9mgyRyK3-_l-155" edge="1">
          <mxGeometry relative="1" as="geometry">
            <mxPoint x="854.25" y="1642.5" as="sourcePoint" />
            <mxPoint x="956.25" y="1642.5" as="targetPoint" />
          </mxGeometry>
        </mxCell>
        <mxCell id="jvJYzUm6K9mgyRyK3-_l-158" value="True" style="edgeLabel;html=1;align=center;verticalAlign=middle;resizable=0;points=[];" parent="jvJYzUm6K9mgyRyK3-_l-157" vertex="1" connectable="0">
          <mxGeometry x="-0.2227" relative="1" as="geometry">
            <mxPoint x="-22" y="-10" as="offset" />
          </mxGeometry>
        </mxCell>
        <mxCell id="jvJYzUm6K9mgyRyK3-_l-159" value="" style="edgeStyle=orthogonalEdgeStyle;rounded=0;orthogonalLoop=1;jettySize=auto;html=1;" parent="1" source="jvJYzUm6K9mgyRyK3-_l-152" target="jvJYzUm6K9mgyRyK3-_l-176" edge="1">
          <mxGeometry relative="1" as="geometry">
            <mxPoint x="546.4000000000001" y="1727.4850000000001" as="sourcePoint" />
            <mxPoint x="550" y="1742.67" as="targetPoint" />
          </mxGeometry>
        </mxCell>
        <mxCell id="jvJYzUm6K9mgyRyK3-_l-160" value="False" style="edgeLabel;html=1;align=center;verticalAlign=middle;resizable=0;points=[];" parent="jvJYzUm6K9mgyRyK3-_l-159" vertex="1" connectable="0">
          <mxGeometry x="-0.2227" relative="1" as="geometry">
            <mxPoint x="-22" y="-10" as="offset" />
          </mxGeometry>
        </mxCell>
        <mxCell id="jvJYzUm6K9mgyRyK3-_l-161" value="" style="edgeStyle=orthogonalEdgeStyle;rounded=0;orthogonalLoop=1;jettySize=auto;html=1;" parent="1" source="jvJYzUm6K9mgyRyK3-_l-156" target="jvJYzUm6K9mgyRyK3-_l-179" edge="1">
          <mxGeometry relative="1" as="geometry">
            <mxPoint x="1721.4" y="1689.9987500000002" as="sourcePoint" />
            <mxPoint x="1720" y="1782.67" as="targetPoint" />
          </mxGeometry>
        </mxCell>
        <mxCell id="jvJYzUm6K9mgyRyK3-_l-166" value="The user chooses the transportation they want" style="rounded=1;whiteSpace=wrap;html=1;arcSize=40;fontColor=#000000;fillColor=#ffffc0;strokeColor=#ff0000;" parent="1" vertex="1">
          <mxGeometry x="1161.25" y="1602.5" width="157.5" height="60" as="geometry" />
        </mxCell>
        <mxCell id="jvJYzUm6K9mgyRyK3-_l-167" value="The user clicks the &quot;Save&quot; button" style="rounded=1;whiteSpace=wrap;html=1;arcSize=40;fontColor=#000000;fillColor=#ffffc0;strokeColor=#ff0000;" parent="1" vertex="1">
          <mxGeometry x="1426.25" y="1602.5" width="157.5" height="60" as="geometry" />
        </mxCell>
        <mxCell id="jvJYzUm6K9mgyRyK3-_l-168" value="The system shows accomodation options with a map" style="rounded=1;whiteSpace=wrap;html=1;arcSize=40;fontColor=#000000;fillColor=#ffffc0;strokeColor=#ff0000;" parent="1" vertex="1">
          <mxGeometry x="923.75" y="1602.5" width="157.5" height="60" as="geometry" />
        </mxCell>
        <mxCell id="jvJYzUm6K9mgyRyK3-_l-169" value="" style="edgeStyle=orthogonalEdgeStyle;rounded=0;orthogonalLoop=1;jettySize=auto;html=1;" parent="1" source="jvJYzUm6K9mgyRyK3-_l-97" target="jvJYzUm6K9mgyRyK3-_l-150" edge="1">
          <mxGeometry relative="1" as="geometry">
            <mxPoint x="842.5" y="1454.52" as="sourcePoint" />
            <mxPoint x="937.5" y="1454.52" as="targetPoint" />
          </mxGeometry>
        </mxCell>
        <mxCell id="jvJYzUm6K9mgyRyK3-_l-171" value="" style="edgeStyle=orthogonalEdgeStyle;rounded=0;orthogonalLoop=1;jettySize=auto;html=1;" parent="1" source="jvJYzUm6K9mgyRyK3-_l-150" target="jvJYzUm6K9mgyRyK3-_l-146" edge="1">
          <mxGeometry relative="1" as="geometry">
            <mxPoint x="853" y="1465" as="sourcePoint" />
            <mxPoint x="933" y="1465" as="targetPoint" />
          </mxGeometry>
        </mxCell>
        <mxCell id="jvJYzUm6K9mgyRyK3-_l-172" value="" style="edgeStyle=orthogonalEdgeStyle;rounded=0;orthogonalLoop=1;jettySize=auto;html=1;" parent="1" source="jvJYzUm6K9mgyRyK3-_l-146" target="jvJYzUm6K9mgyRyK3-_l-148" edge="1">
          <mxGeometry relative="1" as="geometry">
            <mxPoint x="1090" y="1465" as="sourcePoint" />
            <mxPoint x="1170" y="1465" as="targetPoint" />
          </mxGeometry>
        </mxCell>
        <mxCell id="jvJYzUm6K9mgyRyK3-_l-173" value="" style="edgeStyle=orthogonalEdgeStyle;rounded=0;orthogonalLoop=1;jettySize=auto;html=1;" parent="1" source="jvJYzUm6K9mgyRyK3-_l-166" target="jvJYzUm6K9mgyRyK3-_l-167" edge="1">
          <mxGeometry relative="1" as="geometry">
            <mxPoint x="1101.25" y="1497.5" as="sourcePoint" />
            <mxPoint x="1181.25" y="1497.5" as="targetPoint" />
          </mxGeometry>
        </mxCell>
        <mxCell id="jvJYzUm6K9mgyRyK3-_l-174" value="" style="edgeStyle=orthogonalEdgeStyle;rounded=0;orthogonalLoop=1;jettySize=auto;html=1;" parent="1" source="jvJYzUm6K9mgyRyK3-_l-168" target="jvJYzUm6K9mgyRyK3-_l-166" edge="1">
          <mxGeometry relative="1" as="geometry">
            <mxPoint x="1111.25" y="1507.5" as="sourcePoint" />
            <mxPoint x="1191.25" y="1507.5" as="targetPoint" />
          </mxGeometry>
        </mxCell>
        <mxCell id="jvJYzUm6K9mgyRyK3-_l-175" value="" style="edgeStyle=orthogonalEdgeStyle;rounded=0;orthogonalLoop=1;jettySize=auto;html=1;" parent="1" source="jvJYzUm6K9mgyRyK3-_l-155" target="jvJYzUm6K9mgyRyK3-_l-168" edge="1">
          <mxGeometry relative="1" as="geometry">
            <mxPoint x="1121.25" y="1517.5" as="sourcePoint" />
            <mxPoint x="1201.25" y="1517.5" as="targetPoint" />
          </mxGeometry>
        </mxCell>
        <mxCell id="jvJYzUm6K9mgyRyK3-_l-176" value="The user&amp;nbsp;clicked the &quot;Budget&quot; button" style="rhombus;whiteSpace=wrap;html=1;fontColor=#000000;fillColor=#ffffc0;strokeColor=#ff0000;" parent="1" vertex="1">
          <mxGeometry x="471.25" y="1726.31" width="150" height="142.63" as="geometry" />
        </mxCell>
        <mxCell id="jvJYzUm6K9mgyRyK3-_l-177" value="" style="edgeStyle=orthogonalEdgeStyle;rounded=0;orthogonalLoop=1;jettySize=auto;html=1;" parent="1" source="jvJYzUm6K9mgyRyK3-_l-188" target="jvJYzUm6K9mgyRyK3-_l-179" edge="1">
          <mxGeometry relative="1" as="geometry">
            <mxPoint x="1180" y="1797.63" as="targetPoint" />
          </mxGeometry>
        </mxCell>
        <mxCell id="jvJYzUm6K9mgyRyK3-_l-178" value="The user&amp;nbsp;is on the budget page" style="rounded=1;whiteSpace=wrap;html=1;arcSize=40;fontColor=#000000;fillColor=#ffffc0;strokeColor=#ff0000;" parent="1" vertex="1">
          <mxGeometry x="685" y="1767.63" width="157.5" height="60" as="geometry" />
        </mxCell>
        <mxCell id="jvJYzUm6K9mgyRyK3-_l-179" value="" style="rhombus;whiteSpace=wrap;html=1;fontColor=#000000;fillColor=#ffffc0;strokeColor=#ff0000;" parent="1" vertex="1">
          <mxGeometry x="1680" y="1762.63" width="80" height="70" as="geometry" />
        </mxCell>
        <mxCell id="jvJYzUm6K9mgyRyK3-_l-180" value="" style="edgeStyle=orthogonalEdgeStyle;rounded=0;orthogonalLoop=1;jettySize=auto;html=1;" parent="1" source="jvJYzUm6K9mgyRyK3-_l-176" target="jvJYzUm6K9mgyRyK3-_l-178" edge="1">
          <mxGeometry relative="1" as="geometry">
            <mxPoint x="853" y="1807.63" as="sourcePoint" />
            <mxPoint x="955" y="1807.63" as="targetPoint" />
          </mxGeometry>
        </mxCell>
        <mxCell id="jvJYzUm6K9mgyRyK3-_l-181" value="True" style="edgeLabel;html=1;align=center;verticalAlign=middle;resizable=0;points=[];" parent="jvJYzUm6K9mgyRyK3-_l-180" vertex="1" connectable="0">
          <mxGeometry x="-0.2227" relative="1" as="geometry">
            <mxPoint x="-22" y="-10" as="offset" />
          </mxGeometry>
        </mxCell>
        <mxCell id="jvJYzUm6K9mgyRyK3-_l-182" value="" style="edgeStyle=orthogonalEdgeStyle;rounded=0;orthogonalLoop=1;jettySize=auto;html=1;" parent="1" source="jvJYzUm6K9mgyRyK3-_l-176" target="jvJYzUm6K9mgyRyK3-_l-193" edge="1">
          <mxGeometry relative="1" as="geometry">
            <mxPoint x="547.5000000000005" y="1942.63" as="sourcePoint" />
            <mxPoint x="550" y="1922.63" as="targetPoint" />
          </mxGeometry>
        </mxCell>
        <mxCell id="jvJYzUm6K9mgyRyK3-_l-183" value="False" style="edgeLabel;html=1;align=center;verticalAlign=middle;resizable=0;points=[];" parent="jvJYzUm6K9mgyRyK3-_l-182" vertex="1" connectable="0">
          <mxGeometry x="-0.2227" relative="1" as="geometry">
            <mxPoint x="-22" y="-10" as="offset" />
          </mxGeometry>
        </mxCell>
        <mxCell id="jvJYzUm6K9mgyRyK3-_l-184" value="" style="edgeStyle=orthogonalEdgeStyle;rounded=0;orthogonalLoop=1;jettySize=auto;html=1;" parent="1" source="jvJYzUm6K9mgyRyK3-_l-179" target="jvJYzUm6K9mgyRyK3-_l-196" edge="1">
          <mxGeometry relative="1" as="geometry">
            <mxPoint x="1717.5" y="1880" as="sourcePoint" />
            <mxPoint x="1717.5" y="1935" as="targetPoint" />
          </mxGeometry>
        </mxCell>
        <mxCell id="jvJYzUm6K9mgyRyK3-_l-187" value="&lt;div&gt;The system adjusts the activities of the trip plan to the budget&lt;/div&gt;" style="rounded=1;whiteSpace=wrap;html=1;arcSize=40;fontColor=#000000;fillColor=#ffffc0;strokeColor=#ff0000;" parent="1" vertex="1">
          <mxGeometry x="1160" y="1767.63" width="157.5" height="60" as="geometry" />
        </mxCell>
        <mxCell id="jvJYzUm6K9mgyRyK3-_l-188" value="The user clicks the &quot;Save&quot; button" style="rounded=1;whiteSpace=wrap;html=1;arcSize=40;fontColor=#000000;fillColor=#ffffc0;strokeColor=#ff0000;" parent="1" vertex="1">
          <mxGeometry x="1425" y="1767.63" width="157.5" height="60" as="geometry" />
        </mxCell>
        <mxCell id="jvJYzUm6K9mgyRyK3-_l-189" value="The user adds their budget" style="rounded=1;whiteSpace=wrap;html=1;arcSize=40;fontColor=#000000;fillColor=#ffffc0;strokeColor=#ff0000;" parent="1" vertex="1">
          <mxGeometry x="922.5" y="1767.63" width="157.5" height="60" as="geometry" />
        </mxCell>
        <mxCell id="jvJYzUm6K9mgyRyK3-_l-190" value="" style="edgeStyle=orthogonalEdgeStyle;rounded=0;orthogonalLoop=1;jettySize=auto;html=1;" parent="1" source="jvJYzUm6K9mgyRyK3-_l-187" target="jvJYzUm6K9mgyRyK3-_l-188" edge="1">
          <mxGeometry relative="1" as="geometry">
            <mxPoint x="1100" y="1662.63" as="sourcePoint" />
            <mxPoint x="1180" y="1662.63" as="targetPoint" />
          </mxGeometry>
        </mxCell>
        <mxCell id="jvJYzUm6K9mgyRyK3-_l-191" value="" style="edgeStyle=orthogonalEdgeStyle;rounded=0;orthogonalLoop=1;jettySize=auto;html=1;" parent="1" source="jvJYzUm6K9mgyRyK3-_l-189" target="jvJYzUm6K9mgyRyK3-_l-187" edge="1">
          <mxGeometry relative="1" as="geometry">
            <mxPoint x="1110" y="1672.63" as="sourcePoint" />
            <mxPoint x="1190" y="1672.63" as="targetPoint" />
          </mxGeometry>
        </mxCell>
        <mxCell id="jvJYzUm6K9mgyRyK3-_l-192" value="" style="edgeStyle=orthogonalEdgeStyle;rounded=0;orthogonalLoop=1;jettySize=auto;html=1;" parent="1" source="jvJYzUm6K9mgyRyK3-_l-178" target="jvJYzUm6K9mgyRyK3-_l-189" edge="1">
          <mxGeometry relative="1" as="geometry">
            <mxPoint x="1120" y="1682.63" as="sourcePoint" />
            <mxPoint x="1200" y="1682.63" as="targetPoint" />
          </mxGeometry>
        </mxCell>
        <mxCell id="jvJYzUm6K9mgyRyK3-_l-193" value="The user&amp;nbsp;clicked the &quot;Purpose&quot; button" style="rhombus;whiteSpace=wrap;html=1;fontColor=#000000;fillColor=#ffffc0;strokeColor=#ff0000;" parent="1" vertex="1">
          <mxGeometry x="466.25" y="1900" width="160" height="150" as="geometry" />
        </mxCell>
        <mxCell id="jvJYzUm6K9mgyRyK3-_l-194" value="" style="edgeStyle=orthogonalEdgeStyle;rounded=0;orthogonalLoop=1;jettySize=auto;html=1;" parent="1" source="jvJYzUm6K9mgyRyK3-_l-205" target="jvJYzUm6K9mgyRyK3-_l-196" edge="1">
          <mxGeometry relative="1" as="geometry">
            <mxPoint x="1177.5" y="1975" as="targetPoint" />
          </mxGeometry>
        </mxCell>
        <mxCell id="jvJYzUm6K9mgyRyK3-_l-195" value="The user&amp;nbsp;is on the purpose page" style="rounded=1;whiteSpace=wrap;html=1;arcSize=40;fontColor=#000000;fillColor=#ffffc0;strokeColor=#ff0000;" parent="1" vertex="1">
          <mxGeometry x="682.5" y="1945" width="157.5" height="60" as="geometry" />
        </mxCell>
        <mxCell id="jvJYzUm6K9mgyRyK3-_l-196" value="" style="rhombus;whiteSpace=wrap;html=1;fontColor=#000000;fillColor=#ffffc0;strokeColor=#ff0000;" parent="1" vertex="1">
          <mxGeometry x="1680" y="1940" width="80" height="70" as="geometry" />
        </mxCell>
        <mxCell id="jvJYzUm6K9mgyRyK3-_l-197" value="" style="edgeStyle=orthogonalEdgeStyle;rounded=0;orthogonalLoop=1;jettySize=auto;html=1;" parent="1" source="jvJYzUm6K9mgyRyK3-_l-193" target="jvJYzUm6K9mgyRyK3-_l-195" edge="1">
          <mxGeometry relative="1" as="geometry">
            <mxPoint x="850.5" y="1985" as="sourcePoint" />
            <mxPoint x="952.5" y="1985" as="targetPoint" />
          </mxGeometry>
        </mxCell>
        <mxCell id="jvJYzUm6K9mgyRyK3-_l-198" value="True" style="edgeLabel;html=1;align=center;verticalAlign=middle;resizable=0;points=[];" parent="jvJYzUm6K9mgyRyK3-_l-197" vertex="1" connectable="0">
          <mxGeometry x="-0.2227" relative="1" as="geometry">
            <mxPoint x="-22" y="-10" as="offset" />
          </mxGeometry>
        </mxCell>
        <mxCell id="jvJYzUm6K9mgyRyK3-_l-199" value="" style="edgeStyle=orthogonalEdgeStyle;rounded=0;orthogonalLoop=1;jettySize=auto;html=1;" parent="1" source="jvJYzUm6K9mgyRyK3-_l-193" target="jvJYzUm6K9mgyRyK3-_l-210" edge="1">
          <mxGeometry relative="1" as="geometry">
            <mxPoint x="597.5" y="1985" as="sourcePoint" />
            <mxPoint x="547.6500000000001" y="2040.140625" as="targetPoint" />
          </mxGeometry>
        </mxCell>
        <mxCell id="jvJYzUm6K9mgyRyK3-_l-200" value="False" style="edgeLabel;html=1;align=center;verticalAlign=middle;resizable=0;points=[];" parent="jvJYzUm6K9mgyRyK3-_l-199" vertex="1" connectable="0">
          <mxGeometry x="-0.2227" relative="1" as="geometry">
            <mxPoint x="-22" y="-10" as="offset" />
          </mxGeometry>
        </mxCell>
        <mxCell id="jvJYzUm6K9mgyRyK3-_l-201" value="" style="edgeStyle=orthogonalEdgeStyle;rounded=0;orthogonalLoop=1;jettySize=auto;html=1;" parent="1" source="jvJYzUm6K9mgyRyK3-_l-196" target="jvJYzUm6K9mgyRyK3-_l-213" edge="1">
          <mxGeometry relative="1" as="geometry">
            <mxPoint x="1292.5" y="2020" as="sourcePoint" />
            <mxPoint x="1717.5" y="2080" as="targetPoint" />
          </mxGeometry>
        </mxCell>
        <mxCell id="jvJYzUm6K9mgyRyK3-_l-204" value="&lt;div&gt;The system adjusts the activities of the trip plan to the trip purposes&lt;/div&gt;" style="rounded=1;whiteSpace=wrap;html=1;arcSize=40;fontColor=#000000;fillColor=#ffffc0;strokeColor=#ff0000;" parent="1" vertex="1">
          <mxGeometry x="1157.5" y="1945" width="157.5" height="60" as="geometry" />
        </mxCell>
        <mxCell id="jvJYzUm6K9mgyRyK3-_l-205" value="The user clicks the &quot;Save&quot; button" style="rounded=1;whiteSpace=wrap;html=1;arcSize=40;fontColor=#000000;fillColor=#ffffc0;strokeColor=#ff0000;" parent="1" vertex="1">
          <mxGeometry x="1422.5" y="1945" width="157.5" height="60" as="geometry" />
        </mxCell>
        <mxCell id="jvJYzUm6K9mgyRyK3-_l-206" value="The user adds one or more trip purposes" style="rounded=1;whiteSpace=wrap;html=1;arcSize=40;fontColor=#000000;fillColor=#ffffc0;strokeColor=#ff0000;" parent="1" vertex="1">
          <mxGeometry x="920" y="1945" width="157.5" height="60" as="geometry" />
        </mxCell>
        <mxCell id="jvJYzUm6K9mgyRyK3-_l-207" value="" style="edgeStyle=orthogonalEdgeStyle;rounded=0;orthogonalLoop=1;jettySize=auto;html=1;" parent="1" source="jvJYzUm6K9mgyRyK3-_l-204" target="jvJYzUm6K9mgyRyK3-_l-205" edge="1">
          <mxGeometry relative="1" as="geometry">
            <mxPoint x="1097.5" y="1840" as="sourcePoint" />
            <mxPoint x="1177.5" y="1840" as="targetPoint" />
          </mxGeometry>
        </mxCell>
        <mxCell id="jvJYzUm6K9mgyRyK3-_l-208" value="" style="edgeStyle=orthogonalEdgeStyle;rounded=0;orthogonalLoop=1;jettySize=auto;html=1;" parent="1" source="jvJYzUm6K9mgyRyK3-_l-206" target="jvJYzUm6K9mgyRyK3-_l-204" edge="1">
          <mxGeometry relative="1" as="geometry">
            <mxPoint x="1107.5" y="1850" as="sourcePoint" />
            <mxPoint x="1187.5" y="1850" as="targetPoint" />
          </mxGeometry>
        </mxCell>
        <mxCell id="jvJYzUm6K9mgyRyK3-_l-209" value="" style="edgeStyle=orthogonalEdgeStyle;rounded=0;orthogonalLoop=1;jettySize=auto;html=1;" parent="1" source="jvJYzUm6K9mgyRyK3-_l-195" target="jvJYzUm6K9mgyRyK3-_l-206" edge="1">
          <mxGeometry relative="1" as="geometry">
            <mxPoint x="1117.5" y="1860" as="sourcePoint" />
            <mxPoint x="1197.5" y="1860" as="targetPoint" />
          </mxGeometry>
        </mxCell>
        <mxCell id="jvJYzUm6K9mgyRyK3-_l-210" value="The user clicked the &quot;Interests&quot; button" style="rhombus;whiteSpace=wrap;html=1;fontColor=#000000;fillColor=#ffffc0;strokeColor=#ff0000;" parent="1" vertex="1">
          <mxGeometry x="466.25" y="2120" width="160" height="150" as="geometry" />
        </mxCell>
        <mxCell id="jvJYzUm6K9mgyRyK3-_l-211" value="" style="edgeStyle=orthogonalEdgeStyle;rounded=0;orthogonalLoop=1;jettySize=auto;html=1;" parent="1" source="jvJYzUm6K9mgyRyK3-_l-222" target="jvJYzUm6K9mgyRyK3-_l-213" edge="1">
          <mxGeometry relative="1" as="geometry">
            <mxPoint x="1177.5" y="2195" as="targetPoint" />
          </mxGeometry>
        </mxCell>
        <mxCell id="jvJYzUm6K9mgyRyK3-_l-212" value="The user&amp;nbsp;is on the interest page" style="rounded=1;whiteSpace=wrap;html=1;arcSize=40;fontColor=#000000;fillColor=#ffffc0;strokeColor=#ff0000;" parent="1" vertex="1">
          <mxGeometry x="682.5" y="2165" width="157.5" height="60" as="geometry" />
        </mxCell>
        <mxCell id="jvJYzUm6K9mgyRyK3-_l-213" value="" style="rhombus;whiteSpace=wrap;html=1;fontColor=#000000;fillColor=#ffffc0;strokeColor=#ff0000;" parent="1" vertex="1">
          <mxGeometry x="1680" y="2160" width="80" height="70" as="geometry" />
        </mxCell>
        <mxCell id="jvJYzUm6K9mgyRyK3-_l-214" value="" style="edgeStyle=orthogonalEdgeStyle;rounded=0;orthogonalLoop=1;jettySize=auto;html=1;" parent="1" source="jvJYzUm6K9mgyRyK3-_l-210" target="jvJYzUm6K9mgyRyK3-_l-212" edge="1">
          <mxGeometry relative="1" as="geometry">
            <mxPoint x="850.5" y="2205" as="sourcePoint" />
            <mxPoint x="952.5" y="2205" as="targetPoint" />
          </mxGeometry>
        </mxCell>
        <mxCell id="jvJYzUm6K9mgyRyK3-_l-215" value="True" style="edgeLabel;html=1;align=center;verticalAlign=middle;resizable=0;points=[];" parent="jvJYzUm6K9mgyRyK3-_l-214" vertex="1" connectable="0">
          <mxGeometry x="-0.2227" relative="1" as="geometry">
            <mxPoint x="-22" y="-10" as="offset" />
          </mxGeometry>
        </mxCell>
        <mxCell id="jvJYzUm6K9mgyRyK3-_l-216" value="" style="edgeStyle=orthogonalEdgeStyle;rounded=0;orthogonalLoop=1;jettySize=auto;html=1;" parent="1" source="jvJYzUm6K9mgyRyK3-_l-210" target="jvJYzUm6K9mgyRyK3-_l-227" edge="1">
          <mxGeometry relative="1" as="geometry">
            <mxPoint x="601.25" y="2305" as="sourcePoint" />
            <mxPoint x="551.25" y="2385" as="targetPoint" />
          </mxGeometry>
        </mxCell>
        <mxCell id="jvJYzUm6K9mgyRyK3-_l-217" value="False" style="edgeLabel;html=1;align=center;verticalAlign=middle;resizable=0;points=[];" parent="jvJYzUm6K9mgyRyK3-_l-216" vertex="1" connectable="0">
          <mxGeometry x="-0.2227" relative="1" as="geometry">
            <mxPoint x="-22" y="-10" as="offset" />
          </mxGeometry>
        </mxCell>
        <mxCell id="jvJYzUm6K9mgyRyK3-_l-218" value="" style="edgeStyle=orthogonalEdgeStyle;rounded=0;orthogonalLoop=1;jettySize=auto;html=1;" parent="1" source="jvJYzUm6K9mgyRyK3-_l-213" target="jvJYzUm6K9mgyRyK3-_l-64" edge="1">
          <mxGeometry relative="1" as="geometry">
            <mxPoint x="1295" y="2090" as="sourcePoint" />
            <mxPoint x="1720" y="2250" as="targetPoint" />
            <Array as="points">
              <mxPoint x="1720" y="2270" />
              <mxPoint x="1780" y="2270" />
              <mxPoint x="1780" y="890" />
            </Array>
          </mxGeometry>
        </mxCell>
        <mxCell id="jvJYzUm6K9mgyRyK3-_l-221" value="&lt;div&gt;The system adjusts the activities of the trip plan to the trip interests&lt;/div&gt;" style="rounded=1;whiteSpace=wrap;html=1;arcSize=40;fontColor=#000000;fillColor=#ffffc0;strokeColor=#ff0000;" parent="1" vertex="1">
          <mxGeometry x="1157.5" y="2165" width="157.5" height="60" as="geometry" />
        </mxCell>
        <mxCell id="jvJYzUm6K9mgyRyK3-_l-222" value="The user clicks the &quot;Save&quot; button" style="rounded=1;whiteSpace=wrap;html=1;arcSize=40;fontColor=#000000;fillColor=#ffffc0;strokeColor=#ff0000;" parent="1" vertex="1">
          <mxGeometry x="1422.5" y="2165" width="157.5" height="60" as="geometry" />
        </mxCell>
        <mxCell id="jvJYzUm6K9mgyRyK3-_l-223" value="The user adds one or more trip interests" style="rounded=1;whiteSpace=wrap;html=1;arcSize=40;fontColor=#000000;fillColor=#ffffc0;strokeColor=#ff0000;" parent="1" vertex="1">
          <mxGeometry x="920" y="2165" width="157.5" height="60" as="geometry" />
        </mxCell>
        <mxCell id="jvJYzUm6K9mgyRyK3-_l-224" value="" style="edgeStyle=orthogonalEdgeStyle;rounded=0;orthogonalLoop=1;jettySize=auto;html=1;" parent="1" source="jvJYzUm6K9mgyRyK3-_l-221" target="jvJYzUm6K9mgyRyK3-_l-222" edge="1">
          <mxGeometry relative="1" as="geometry">
            <mxPoint x="1097.5" y="2060" as="sourcePoint" />
            <mxPoint x="1177.5" y="2060" as="targetPoint" />
          </mxGeometry>
        </mxCell>
        <mxCell id="jvJYzUm6K9mgyRyK3-_l-225" value="" style="edgeStyle=orthogonalEdgeStyle;rounded=0;orthogonalLoop=1;jettySize=auto;html=1;" parent="1" source="jvJYzUm6K9mgyRyK3-_l-223" target="jvJYzUm6K9mgyRyK3-_l-221" edge="1">
          <mxGeometry relative="1" as="geometry">
            <mxPoint x="1107.5" y="2070" as="sourcePoint" />
            <mxPoint x="1187.5" y="2070" as="targetPoint" />
          </mxGeometry>
        </mxCell>
        <mxCell id="jvJYzUm6K9mgyRyK3-_l-226" value="" style="edgeStyle=orthogonalEdgeStyle;rounded=0;orthogonalLoop=1;jettySize=auto;html=1;" parent="1" source="jvJYzUm6K9mgyRyK3-_l-212" target="jvJYzUm6K9mgyRyK3-_l-223" edge="1">
          <mxGeometry relative="1" as="geometry">
            <mxPoint x="1117.5" y="2080" as="sourcePoint" />
            <mxPoint x="1197.5" y="2080" as="targetPoint" />
          </mxGeometry>
        </mxCell>
        <mxCell id="jvJYzUm6K9mgyRyK3-_l-227" value="The user&amp;nbsp;clicked somewhere else" style="rounded=1;whiteSpace=wrap;html=1;arcSize=40;fontColor=#000000;fillColor=#ffffc0;strokeColor=#ff0000;" parent="1" vertex="1">
          <mxGeometry x="467.5" y="2390" width="157.5" height="60" as="geometry" />
        </mxCell>
        <mxCell id="jvJYzUm6K9mgyRyK3-_l-229" value="&amp;nbsp;" style="edgeStyle=orthogonalEdgeStyle;rounded=0;orthogonalLoop=1;jettySize=auto;html=1;" parent="1" target="jvJYzUm6K9mgyRyK3-_l-64" edge="1">
          <mxGeometry relative="1" as="geometry">
            <mxPoint x="622.5" y="2420" as="sourcePoint" />
            <mxPoint x="1830" y="830" as="targetPoint" />
            <Array as="points">
              <mxPoint x="1920" y="2420" />
              <mxPoint x="1920" y="870" />
            </Array>
          </mxGeometry>
        </mxCell>
        <mxCell id="jvJYzUm6K9mgyRyK3-_l-231" value="" style="ellipse;html=1;shape=endState;fillColor=#000000;strokeColor=#ff0000;" parent="1" vertex="1">
          <mxGeometry x="233.75" y="1520" width="30" height="30" as="geometry" />
        </mxCell>
        <mxCell id="SPMXsXP_d2z0GtDwypCX-4" value="" style="edgeStyle=orthogonalEdgeStyle;rounded=0;orthogonalLoop=1;jettySize=auto;html=1;" parent="1" source="jvJYzUm6K9mgyRyK3-_l-94" target="jvJYzUm6K9mgyRyK3-_l-96" edge="1">
          <mxGeometry relative="1" as="geometry">
            <mxPoint x="540" y="1260" as="sourcePoint" />
            <mxPoint x="560" y="1260" as="targetPoint" />
          </mxGeometry>
        </mxCell>
        <mxCell id="SPMXsXP_d2z0GtDwypCX-8" value="" style="edgeStyle=orthogonalEdgeStyle;rounded=0;orthogonalLoop=1;jettySize=auto;html=1;" parent="1" source="jvJYzUm6K9mgyRyK3-_l-73" target="jvJYzUm6K9mgyRyK3-_l-231" edge="1">
          <mxGeometry relative="1" as="geometry">
            <mxPoint x="259" y="1320" as="sourcePoint" />
            <mxPoint x="259" y="1405" as="targetPoint" />
          </mxGeometry>
        </mxCell>
        <mxCell id="ONITBdl71ZvCqAf3oswR-2" value="" style="edgeStyle=orthogonalEdgeStyle;rounded=0;orthogonalLoop=1;jettySize=auto;html=1;exitX=1;exitY=0.5;exitDx=0;exitDy=0;entryX=1;entryY=0.5;entryDx=0;entryDy=0;" edge="1" parent="1" source="jvJYzUm6K9mgyRyK3-_l-54" target="jvJYzUm6K9mgyRyK3-_l-41">
          <mxGeometry relative="1" as="geometry">
            <mxPoint x="920" y="465" as="sourcePoint" />
            <mxPoint x="1020" y="310" as="targetPoint" />
          </mxGeometry>
        </mxCell>
      </root>
    </mxGraphModel>
  </diagram>
</mxfile>
